<?xml version="1.0" encoding="utf-8"?>
<!-- Generator: Adobe Illustrator 27.0.0, SVG Export Plug-In . SVG Version: 6.00 Build 0)  -->
<svg version="1.1" id="Layer_1" xmlns="http://www.w3.org/2000/svg" xmlns:xlink="http://www.w3.org/1999/xlink" x="0px" y="0px"
	 width="399.5px" height="317.9px" viewBox="0 0 399.5 317.9" style="enable-background:new 0 0 399.5 317.9;" xml:space="preserve"
	>
<style type="text/css">
	.st0{fill:#133E6D;}
	.st1{fill:#B41820;}
</style>
<g>
	<path class="st0" d="M133.9,62.1c-0.4-0.1-0.8,0-1.1,0.3c-28.5,20.7-47,54.3-47,92.2c0,62.9,51.1,114,114,114
		c0.4,0,0.8-0.2,1.1-0.4c0.3-0.3,0.4-0.7,0.4-1.1s-0.2-0.8-0.4-1.1c-0.3-0.3-0.7-0.5-1.1-0.5c-61.3,0-110.9-49.6-110.9-110.9
		c0-36.9,18-69.6,45.7-89.7c0.7-0.5,0.8-1.5,0.3-2.2C134.6,62.3,134.2,62.1,133.9,62.1L133.9,62.1L133.9,62.1z"/>
	<path class="st0" d="M140.1,59.2c-3.5,4-2.3,5.3-6.6,8.1c-4.3,2.9-6.5,1.5-6.5,1.5s-1.4-2.7,2.7-6.4
		C133.1,59.5,135.6,60.4,140.1,59.2L140.1,59.2z M134.9,71.5c-5.7,5.9-11.3,10.7-15.2,5c4.7-5.1,7.3-5.4,9.2-5
		C130.9,71.9,132.1,73,134.9,71.5L134.9,71.5z M126.1,60.4c-2.3,2.6-1.4,4.2-1.4,6.2c0.1,2.1-0.7,4.2-5.8,9.2
		C113.1,72.2,117.9,65.5,126.1,60.4L126.1,60.4z M125.1,80.9c-5.2,7-10.4,12.8-15.3,7.4c4.2-6.1,7-6.8,9-6.6
		C120.9,81.9,122.3,82.9,125.1,80.9L125.1,80.9L125.1,80.9z M114.3,70.5c-2.1,3.1-0.9,4.7-0.6,6.7c0.4,2.2-0.2,4.5-4.8,10.5
		C102.3,84.8,106.4,77,114.3,70.5L114.3,70.5L114.3,70.5z M116.5,91.6c-4.4,8-9.1,14.8-14.9,9.8c3.6-6.9,6.3-8,8.5-8.1
		C112.2,93.1,113.8,94,116.5,91.6L116.5,91.6L116.5,91.6z M103.9,82.2c-1.8,3.5-0.4,5,0.3,7c0.7,2.3,0.4,4.7-3.5,11.6
		C93.3,98.7,96.5,90,103.9,82.2L103.9,82.2L103.9,82.2z M109.1,103.7c-3.5,8.9-7.4,16.7-14.2,12.3c2.7-7.7,5.5-9.2,7.7-9.7
		C104.9,105.9,106.7,106.6,109.1,103.7C109.1,103.7,109.1,103.7,109.1,103.7z M94.7,95.7c-1.4,3.9,0.3,5.3,1.2,7.3
		c1,2.3,1.1,4.8-2,12.6C85.9,114.5,87.9,104.9,94.7,95.7L94.7,95.7L94.7,95.7z M103.2,117.2c-2.3,9.5-5.2,18.6-13.1,15
		c1.6-8.6,4.3-10.6,6.6-11.4C99.1,120.1,101.1,120.5,103.2,117.2C103.2,117.2,103.2,117.2,103.2,117.2z M86.9,110.8
		c-0.9,4.3,1.1,5.6,2.4,7.6c1.4,2.3,1.8,4.9-0.2,13.6C80.6,132.1,81.1,121.6,86.9,110.8L86.9,110.8z M99.3,131.6
		c-1,10.3-2.5,20.3-11.4,17.9c0.2-9.3,2.8-11.9,5.1-13.1C95.4,135.3,97.5,135.4,99.3,131.6L99.3,131.6z M81.2,127.3
		c-0.3,4.8,2,5.8,3.7,7.7c1.9,2.2,2.7,4.9,2,14.5C77.8,151,76.6,139.8,81.2,127.3L81.2,127.3z M97.3,147.4c0.2,2.5,0.3,5,0.3,7.2
		c0,7.5-1.4,13.8-8.9,13.2c-1.2-7.7,0.2-11.4,1.7-13.2C92.7,151.7,95.9,152.3,97.3,147.4L97.3,147.4z M77.8,145.9
		c0.6,5.9,4.1,5.9,6.3,8.6c1.7,2.2,2.6,5.3,3.4,13.3c-6.9,2.5-10.6-3.5-10.7-13.3C76.9,151.8,77.3,148.9,77.8,145.9L77.8,145.9z
		 M98.2,164.6c2.9,11.5,5.2,22-5,23c-3.4-9.8-1.7-13.5,0.2-15.6C95.4,169.8,97.7,169.2,98.2,164.6C98.2,164.6,98.2,164.6,98.2,164.6
		z M77.6,166.8c1.5,5.2,4.3,5.4,6.8,6.8c2.9,1.6,4.7,4.1,7.8,14.4C83.4,193.1,77.5,181.9,77.6,166.8L77.6,166.8L77.6,166.8z
		 M103,181.2c5.6,12.2,10.4,23.3-0.8,26.7c-6-10.3-4.8-14.8-3-17.5C101,187.5,103.5,186.4,103,181.2L103,181.2L103,181.2z
		 M80.2,187.9c2.7,5.5,6,5.2,9,6.2c3.6,1.3,6,3.7,11.8,14.5C92.3,216.3,83.1,205,80.2,187.9L80.2,187.9L80.2,187.9z M111.1,199.1
		c7.9,11.1,15.7,22.3,4.7,28.2c-8.5-9.5-8.1-14.5-6.8-17.8C110.3,206.2,112.6,204.5,111.1,199.1L111.1,199.1z M88.5,210.8
		c4,5.3,7.3,4.2,10.8,4.8c4.1,0.6,7,2.6,15.4,12.8C107.2,238.2,95.2,228.4,88.5,210.8L88.5,210.8z M123.1,216.5
		c10.3,9.7,20.6,19.4,10.7,27.9c-10.7-7.8-11.4-13.1-10.8-16.7C123.7,223.9,125.8,221.8,123.1,216.5L123.1,216.5L123.1,216.5z
		 M102.4,233.1c5.2,4.6,8.4,2.9,12,2.6c4.4-0.2,7.7,1.2,18.5,9.8C127.5,257.3,112.9,249.9,102.4,233.1
		C102.4,233.1,102.4,233.1,102.4,233.1z M139.9,232.1c12.7,7.4,25.8,14.6,17.9,26c-13.2-5.1-15.2-10.6-15.4-14.4
		C142.2,239.6,143.8,236.9,139.9,232.1L139.9,232.1z M122.2,254.2c6.5,3.6,9.6,1,13.2-0.1c4.7-1.4,8.1-0.5,21.8,5.4
		C154.8,273.1,137.5,269.4,122.2,254.2L122.2,254.2L122.2,254.2z"/>
	<path class="st0" d="M266.8,62.3c-0.3-0.2-0.8-0.3-1.1-0.3c-0.4,0.1-0.8,0.3-1,0.6c-0.5,0.7-0.4,1.7,0.3,2.2
		c27.7,20.2,45.7,52.8,45.7,89.7c0,61.3-49.6,110.9-110.9,110.9c-0.4,0-0.8,0.2-1.1,0.4c-0.3,0.3-0.4,0.7-0.4,1.1
		c0,0.9,0.7,1.5,1.5,1.5c62.9,0,114-51.1,114-114C313.7,116.6,295.2,83,266.8,62.3L266.8,62.3L266.8,62.3z"/>
	<path class="st0" d="M259.4,59.2c3.5,4,2.3,5.3,6.6,8.1c4.3,2.9,6.5,1.5,6.5,1.5s1.4-2.7-2.7-6.4C266.4,59.5,263.8,60.4,259.4,59.2
		L259.4,59.2L259.4,59.2z M264.6,71.5c5.7,5.9,11.3,10.7,15.2,5c-4.7-5.1-7.3-5.4-9.2-5C268.6,71.9,267.4,73,264.6,71.5L264.6,71.5z
		 M273.4,60.4c2.3,2.6,1.5,4.2,1.4,6.2c-0.1,2.1,0.7,4.2,5.8,9.2C286.3,72.2,281.6,65.5,273.4,60.4L273.4,60.4z M274.3,80.9
		c5.1,7,10.4,12.8,15.3,7.4c-4.2-6.1-7-6.8-9-6.6C278.5,81.9,277.1,82.9,274.3,80.9L274.3,80.9L274.3,80.9z M285.1,70.5
		c2.1,3.1,0.9,4.7,0.6,6.7c-0.4,2.2,0.2,4.5,4.8,10.5C297.1,84.8,293.1,77,285.1,70.5L285.1,70.5L285.1,70.5z M283,91.6
		c4.4,8,9.1,14.8,14.9,9.8c-3.6-6.9-6.3-8-8.5-8.1C287.2,93.1,285.6,94,283,91.6L283,91.6L283,91.6z M295.5,82.2
		c1.8,3.5,0.4,5-0.3,7c-0.7,2.3-0.4,4.7,3.5,11.6C306.1,98.7,303,90,295.5,82.2L295.5,82.2L295.5,82.2z M290.4,103.7
		c3.5,8.9,7.4,16.7,14.2,12.3c-2.7-7.7-5.5-9.2-7.7-9.7C294.6,105.9,292.8,106.6,290.4,103.7L290.4,103.7z M304.8,95.7
		c1.4,3.9-0.3,5.3-1.2,7.3c-1,2.3-1.1,4.8,2,12.6C313.5,114.5,311.5,104.9,304.8,95.7L304.8,95.7z M296.2,117.2
		c2.3,9.5,5.2,18.6,13.1,15c-1.6-8.6-4.3-10.6-6.6-11.4C300.3,120.1,298.4,120.5,296.2,117.2L296.2,117.2z M312.5,110.8
		c0.9,4.3-1.1,5.6-2.4,7.6c-1.4,2.3-1.8,4.9,0.2,13.6C318.9,132.1,318.3,121.6,312.5,110.8L312.5,110.8z M300.1,131.6
		c1,10.3,2.5,20.3,11.4,17.9c-0.2-9.3-2.8-11.9-5.1-13.1C304.1,135.3,301.9,135.4,300.1,131.6L300.1,131.6L300.1,131.6z
		 M318.3,127.3c0.3,4.8-2,5.8-3.7,7.7c-1.9,2.2-2.7,4.9-2,14.5C321.7,151,322.9,139.8,318.3,127.3L318.3,127.3L318.3,127.3z
		 M302.2,147.4c-0.2,2.5-0.3,5-0.3,7.2c0,7.5,1.5,13.8,8.9,13.2c1.2-7.7-0.2-11.4-1.7-13.2C306.7,151.7,303.6,152.3,302.2,147.4
		L302.2,147.4L302.2,147.4z M321.6,145.9c-0.6,5.9-4.1,5.9-6.3,8.6c-1.7,2.2-2.6,5.3-3.5,13.3c6.9,2.5,10.6-3.5,10.6-13.3
		C322.5,151.8,322.2,148.9,321.6,145.9L321.6,145.9z M301.3,164.6c-2.9,11.5-5.2,22,5,23c3.4-9.8,1.7-13.5-0.2-15.6
		C304,169.8,301.8,169.2,301.3,164.6L301.3,164.6L301.3,164.6z M321.9,166.8c-1.5,5.2-4.3,5.4-6.8,6.8c-2.9,1.6-4.6,4.1-7.8,14.4
		C316.1,193.1,322,181.9,321.9,166.8L321.9,166.8L321.9,166.8z M296.4,181.2c-5.6,12.2-10.4,23.3,0.8,26.7c6-10.3,4.8-14.8,3-17.5
		C298.4,187.5,296,186.4,296.4,181.2L296.4,181.2L296.4,181.2z M319.2,187.9c-2.7,5.5-6,5.2-9,6.2c-3.6,1.3-6,3.7-11.8,14.5
		C307.1,216.3,316.3,205,319.2,187.9L319.2,187.9L319.2,187.9z M288.3,199.1c-7.9,11.1-15.7,22.3-4.7,28.2
		c8.5-9.5,8.1-14.5,6.8-17.8C289.1,206.2,286.8,204.5,288.3,199.1L288.3,199.1L288.3,199.1z M310.9,210.8c-4,5.3-7.3,4.2-10.8,4.8
		c-4.1,0.6-7,2.6-15.4,12.8C292.2,238.2,304.3,228.4,310.9,210.8L310.9,210.8z M276.3,216.5c-10.3,9.7-20.6,19.4-10.7,27.9
		c10.7-7.8,11.4-13.1,10.8-16.7C275.7,223.9,273.7,221.8,276.3,216.5L276.3,216.5L276.3,216.5z M297.1,233.1
		c-5.2,4.6-8.5,2.9-12,2.6c-4.4-0.2-7.7,1.2-18.5,9.8C271.9,257.3,286.5,249.9,297.1,233.1L297.1,233.1z M259.6,232.1
		c-12.7,7.4-25.8,14.6-17.9,26c13.2-5.1,15.2-10.6,15.4-14.4C257.3,239.6,255.7,236.9,259.6,232.1L259.6,232.1z M277.2,254.2
		c-6.5,3.6-9.5,1-13.2-0.1c-4.7-1.4-8.1-0.5-21.8,5.4C244.6,273.1,262,269.4,277.2,254.2L277.2,254.2L277.2,254.2z"/>
	<path class="st0" d="M199.7,265.5c-21,0-39.7,10.2-51.3,25.9c-0.2,0.3-0.4,0.7-0.3,1.1c0.1,0.4,0.3,0.8,0.6,1
		c0.7,0.5,1.6,0.4,2.1-0.3c11.1-14.9,28.8-24.6,48.9-24.6s37.8,9.7,48.9,24.6c0.5,0.7,1.5,0.8,2.1,0.3c0.3-0.2,0.6-0.6,0.6-1
		c0.1-0.4,0-0.8-0.3-1.1C239.4,275.7,220.8,265.5,199.7,265.5L199.7,265.5L199.7,265.5z"/>
	<path class="st0" d="M199.7,24l-3.8,9.1l-9.8,0.8l7.4,6.4l-2.3,9.6l8.4-5.1l8.4,5.1l-2.2-9.6l7.5-6.4l-9.8-0.8L199.7,24L199.7,24z
		 M168.5,34.6l-2.9,6.8l-7.4,0.6l5.6,4.9l-1.8,7.2l6.4-3.8l6.3,3.9l-1.7-7.2l5.7-4.8l-7.4-0.6L168.5,34.6L168.5,34.6z M230.9,34.6
		l-2.8,6.9l-7.4,0.6l5.7,4.8l-1.7,7.2l6.3-3.9l6.4,3.9l-1.8-7.2l5.6-4.8l-7.4-0.6L230.9,34.6L230.9,34.6z"/>
	<path class="st1" d="M120.9,164.3c0.8,4.6,2,9.2,3.6,13.6l75.2,33.5l75.2-33.5c1.6-4.4,2.8-9,3.6-13.6l-78.8,35.1L120.9,164.3
		L120.9,164.3z M128.4,186.9c3.2,6.2,7.2,12.1,11.9,17.3l59.5,26.5l59.5-26.5c4.7-5.2,8.7-11,11.9-17.3l-71.3,31.8L128.4,186.9
		L128.4,186.9z"/>
	<path class="st0" d="M199.7,70.5c-21.2,0-41.6,8.3-56.6,23c-15,14.8-23.4,34.8-23.4,55.6c0,2.6,0.2,5.2,0.4,7.7l67.1,29.1
		l-3.5-23.2l-12.5-4.6l-1-7.4h59.1l-1,7.4l-12.5,4.6l-3.5,23.2l67.1-29.1c0.3-2.6,0.4-5.1,0.4-7.7c0-20.9-8.4-40.9-23.5-55.6
		C241.3,78.8,221,70.5,199.7,70.5L199.7,70.5L199.7,70.5z M208,81.3c-7.3,21.6,27,22.8,15.6,45.2c3.4-0.3,4-1.5,6.4-4.1
		c2.8,11.1-1.1,18.4-8,21.4h-44.9c-18.3-19.2,1.6-21.9-2.3-33.8c8.8-0.9,16.4,4.2,14.9,16.8C201.6,118.6,176.4,95,208,81.3L208,81.3
		L208,81.3z"/>
	<path class="st1" d="M199.7,57.4c-51.4,0-93.2,41.8-93.2,93.2s41.8,93.2,93.2,93.2s93.2-41.8,93.2-93.2S251.1,57.4,199.7,57.4
		L199.7,57.4L199.7,57.4z M199.7,65.1c47.2,0,85.5,38.2,85.5,85.5s-38.2,85.5-85.5,85.5s-85.5-38.2-85.5-85.5S152.5,65.1,199.7,65.1
		L199.7,65.1z"/>
</g>
</svg>
