<?xml version="1.0" encoding="UTF-8"?>
<svg id="Layer_1" data-name="Layer 1" xmlns="http://www.w3.org/2000/svg" width="399.45" height="317.86" viewBox="0 0 399.45 317.86">
  <g>
    <path d="M133.85,38.02c-.4-.07-.82,.03-1.15,.27-28.47,20.73-46.97,54.32-46.97,92.22,0,62.94,51.05,114,113.99,114,.41,0,.8-.16,1.09-.45,.29-.29,.45-.68,.45-1.09,0-.41-.16-.8-.45-1.1-.29-.29-.68-.45-1.1-.45-61.28,0-110.91-49.65-110.91-110.92,0-36.9,17.99-69.57,45.7-89.73,.69-.5,.84-1.46,.34-2.15-.24-.33-.6-.55-1-.61h0Zm0,0" style="fill: #133e6d;"/>
    <path d="M140.06,35.18c-3.53,4.03-2.33,5.32-6.59,8.14-4.34,2.87-6.46,1.5-6.46,1.5,0,0-1.43-2.73,2.66-6.36,3.42-3.04,5.95-2.06,10.39-3.28h0Zm-5.17,12.31c-5.67,5.91-11.32,10.67-15.16,4.98,4.71-5.12,7.33-5.42,9.21-5.04,1.94,.39,3.12,1.5,5.95,.06h0Zm-8.79-11.1c-2.33,2.62-1.45,4.24-1.4,6.15,.06,2.12-.74,4.17-5.75,9.18-5.82-3.56-1.05-10.3,7.15-15.33h0Zm-.98,20.51c-5.15,7.02-10.42,12.85-15.29,7.39,4.24-6.08,6.97-6.76,9.01-6.62,2.1,.14,3.5,1.14,6.29-.77h0Zm-10.77-10.44c-2.09,3.09-.94,4.68-.62,6.68,.36,2.23-.19,4.5-4.77,10.51-6.65-2.93-2.58-10.74,5.39-17.2h0Zm2.13,21.12c-4.41,7.99-9.07,14.76-14.89,9.76,3.56-6.9,6.32-7.98,8.46-8.11,2.2-.14,3.8,.72,6.43-1.64h0Zm-12.57-9.38c-1.77,3.5-.35,5,.26,7.04,.68,2.28,.4,4.69-3.52,11.58-7.32-2.12-4.17-10.82,3.27-18.62h0Zm5.19,21.5c-3.51,8.95-7.38,16.67-14.2,12.29,2.72-7.74,5.47-9.25,7.69-9.69,2.29-.45,4.07,.23,6.51-2.6h0Zm-14.41-8.08c-1.37,3.92,.32,5.31,1.24,7.35,1.03,2.31,1.07,4.85-2.03,12.64-7.96-1.15-5.96-10.73,.8-19.99h0Zm8.56,21.56c-2.31,9.53-5.25,18.55-13.09,15.03,1.63-8.57,4.34-10.58,6.61-11.36,2.35-.81,4.32-.36,6.48-3.67h0Zm-16.3-6.42c-.89,4.35,1.11,5.57,2.37,7.59,1.44,2.31,1.82,4.93-.21,13.64-8.55,.05-7.98-10.4-2.16-21.23h0Zm12.36,20.83c-.98,10.3-2.51,20.28-11.39,17.92,.25-9.34,2.83-11.89,5.11-13.07,2.37-1.23,4.5-1.04,6.28-4.85h0Zm-18.15-4.32c-.29,4.76,2.02,5.77,3.67,7.7,1.91,2.25,2.66,4.9,2.01,14.48-9.03,1.52-10.25-9.7-5.68-22.18h0Zm16.11,20.06c.17,2.49,.3,4.96,.31,7.18-.04,7.46-1.45,13.84-8.93,13.21-1.15-7.68,.25-11.44,1.73-13.21,2.35-2.83,5.48-2.25,6.89-7.18h0Zm-19.43-1.46c.56,5.85,4.11,5.85,6.3,8.64,1.72,2.19,2.58,5.33,3.45,13.34-6.92,2.47-10.6-3.5-10.65-13.34,0-2.75,.32-5.68,.9-8.64h0Zm20.32,18.64c2.9,11.5,5.24,21.98-5.01,23.03-3.44-9.84-1.7-13.53,.24-15.63,2.03-2.2,4.3-2.78,4.77-7.4h0Zm-20.59,2.23c1.49,5.18,4.34,5.37,6.79,6.77,2.89,1.65,4.65,4.12,7.76,14.37-8.75,5.13-14.65-6-14.56-21.14h0Zm25.48,14.39c5.56,12.17,10.44,23.31-.8,26.73-6-10.26-4.78-14.77-3.04-17.52,1.82-2.88,4.25-3.98,3.84-9.21h0Zm-22.83,6.69c2.7,5.54,5.96,5.18,8.98,6.25,3.62,1.27,6.02,3.66,11.76,14.5-8.66,7.65-17.82-3.57-20.75-20.75h0Zm30.92,11.27c7.93,11.09,15.68,22.29,4.68,28.24-8.47-9.48-8.11-14.52-6.84-17.77,1.33-3.41,3.66-5.06,2.16-10.47h0Zm-22.59,11.66c3.97,5.29,7.34,4.25,10.75,4.75,4.11,.6,7.04,2.61,15.4,12.79-7.45,9.85-19.53,.04-26.15-17.54h0Zm34.57,5.73c10.34,9.68,20.58,19.38,10.73,27.86-10.74-7.79-11.41-13.08-10.79-16.67,.65-3.78,2.7-5.94,.06-11.18h0Zm-20.73,16.61c5.2,4.62,8.45,2.85,12.04,2.65,4.41-.25,7.7,1.22,18.53,9.77-5.41,11.7-20.03,4.36-30.57-12.42h0Zm37.48-1.01c12.7,7.45,25.79,14.58,17.93,26.01-13.24-5.12-15.18-10.56-15.4-14.43-.23-4.09,1.38-6.77-2.53-11.58h0Zm-17.62,22.05c6.54,3.63,9.55,1,13.22-.07,4.66-1.36,8.15-.54,21.77,5.4-2.4,13.59-19.78,9.91-34.99-5.32h0Zm0,0" style="fill: #133e6d;"/>
    <path d="M266.75,38.29c-.33-.24-.75-.34-1.15-.28-.41,.06-.77,.29-1.01,.62-.5,.69-.35,1.65,.34,2.15,27.7,20.17,45.71,52.84,45.71,89.73,0,61.28-49.65,110.92-110.92,110.92-.41,0-.8,.16-1.09,.45-.29,.29-.45,.68-.45,1.09,0,.85,.69,1.53,1.53,1.53,62.94,0,114-51.06,114-114,0-37.9-18.5-71.5-46.97-92.22h0Zm0,0" style="fill: #133e6d;"/>
    <path d="M259.39,35.18c3.53,4.03,2.33,5.32,6.59,8.14,4.34,2.87,6.46,1.5,6.46,1.5,0,0,1.43-2.73-2.66-6.36-3.42-3.04-5.95-2.06-10.39-3.28h0Zm5.17,12.31c5.67,5.91,11.32,10.67,15.16,4.98-4.71-5.12-7.33-5.42-9.21-5.04-1.93,.39-3.12,1.5-5.95,.06h0Zm8.79-11.1c2.33,2.62,1.45,4.24,1.4,6.15-.06,2.12,.74,4.17,5.75,9.18,5.82-3.56,1.05-10.3-7.15-15.33h0Zm.98,20.51c5.15,7.02,10.42,12.85,15.29,7.39-4.24-6.08-6.97-6.76-9.01-6.62-2.1,.14-3.5,1.14-6.29-.77h0Zm10.77-10.44c2.09,3.09,.94,4.68,.62,6.68-.36,2.23,.19,4.5,4.77,10.51,6.65-2.93,2.58-10.74-5.39-17.2h0Zm-2.13,21.12c4.41,7.99,9.07,14.76,14.89,9.76-3.56-6.9-6.32-7.98-8.46-8.11-2.2-.14-3.8,.72-6.43-1.64h0Zm12.57-9.38c1.76,3.5,.35,5-.26,7.04-.68,2.28-.4,4.69,3.52,11.58,7.32-2.12,4.17-10.82-3.27-18.62h0Zm-5.19,21.5c3.51,8.95,7.38,16.67,14.2,12.29-2.72-7.74-5.47-9.25-7.69-9.69-2.29-.45-4.08,.23-6.51-2.6h0Zm14.41-8.08c1.37,3.92-.32,5.31-1.24,7.35-1.03,2.31-1.07,4.85,2.03,12.64,7.96-1.15,5.96-10.73-.79-19.99h0Zm-8.56,21.56c2.31,9.53,5.25,18.55,13.09,15.03-1.63-8.57-4.34-10.58-6.61-11.36-2.35-.81-4.32-.36-6.48-3.67h0Zm16.3-6.42c.89,4.35-1.11,5.57-2.37,7.59-1.44,2.31-1.82,4.93,.21,13.64,8.55,.05,7.98-10.4,2.16-21.23h0Zm-12.36,20.83c.98,10.3,2.51,20.28,11.39,17.92-.25-9.34-2.83-11.89-5.11-13.07-2.37-1.23-4.5-1.04-6.28-4.85h0Zm18.15-4.32c.29,4.76-2.02,5.77-3.67,7.7-1.91,2.25-2.66,4.9-2,14.48,9.03,1.52,10.25-9.7,5.68-22.18h0Zm-16.11,20.06c-.17,2.49-.3,4.96-.31,7.18,.04,7.46,1.45,13.84,8.92,13.21,1.16-7.68-.25-11.44-1.73-13.21-2.35-2.83-5.48-2.25-6.89-7.18h0Zm19.43-1.46c-.56,5.85-4.11,5.85-6.3,8.64-1.72,2.19-2.58,5.33-3.45,13.34,6.92,2.47,10.6-3.5,10.65-13.34,0-2.75-.32-5.68-.9-8.64h0Zm-20.32,18.64c-2.9,11.5-5.24,21.98,5.01,23.03,3.44-9.84,1.7-13.53-.24-15.63-2.03-2.2-4.31-2.78-4.77-7.4h0Zm20.59,2.23c-1.49,5.18-4.34,5.37-6.79,6.77-2.89,1.65-4.65,4.12-7.76,14.37,8.75,5.13,14.65-6,14.56-21.14h0Zm-25.48,14.39c-5.56,12.17-10.44,23.31,.8,26.73,6-10.26,4.78-14.77,3.04-17.52-1.82-2.88-4.25-3.98-3.84-9.21h0Zm22.83,6.69c-2.7,5.54-5.96,5.18-8.98,6.25-3.62,1.27-6.02,3.66-11.76,14.5,8.66,7.65,17.82-3.57,20.75-20.75h0Zm-30.92,11.27c-7.93,11.09-15.68,22.29-4.67,28.24,8.47-9.48,8.11-14.52,6.84-17.77-1.33-3.41-3.66-5.06-2.16-10.47h0Zm22.59,11.66c-3.97,5.29-7.34,4.25-10.75,4.75-4.11,.6-7.04,2.61-15.4,12.79,7.45,9.85,19.53,.04,26.15-17.54h0Zm-34.57,5.73c-10.34,9.68-20.58,19.38-10.73,27.86,10.74-7.79,11.41-13.08,10.79-16.67-.65-3.78-2.7-5.94-.06-11.18h0Zm20.73,16.61c-5.19,4.62-8.45,2.85-12.04,2.65-4.41-.25-7.7,1.22-18.53,9.77,5.41,11.7,20.03,4.36,30.57-12.42h0Zm-37.48-1.01c-12.7,7.45-25.79,14.58-17.93,26.01,13.24-5.12,15.18-10.56,15.4-14.43,.23-4.09-1.38-6.77,2.53-11.58h0Zm17.62,22.05c-6.54,3.63-9.55,1-13.22-.07-4.66-1.36-8.15-.54-21.77,5.4,2.4,13.59,19.78,9.91,34.99-5.32h0Zm0,0" style="fill: #133e6d;"/>
    <path d="M199.72,241.44c-21.03,0-39.71,10.18-51.33,25.88-.24,.33-.35,.74-.29,1.15,.06,.41,.28,.77,.61,1.01,.68,.5,1.64,.36,2.15-.32,11.07-14.95,28.82-24.64,48.86-24.64s37.8,9.7,48.87,24.64c.51,.68,1.47,.82,2.15,.32,.33-.24,.55-.61,.61-1.01,.06-.41-.04-.82-.29-1.15-11.63-15.7-30.3-25.88-51.33-25.88h0Zm0,0" style="fill: #133e6d;"/>
    <path d="M199.74,0l-3.81,9.07-9.8,.75,7.45,6.42-2.32,9.56,8.41-5.1,8.37,5.15-2.25-9.57,7.49-6.37-9.8-.82-3.75-9.1Zm-31.22,10.51l-2.88,6.85-7.4,.57,5.62,4.85-1.75,7.22,6.35-3.85,6.33,3.89-1.7-7.23,5.66-4.81-7.4-.62-2.83-6.87Zm62.4,.08l-2.83,6.87-7.4,.62,5.66,4.81-1.7,7.23,6.32-3.89,6.35,3.85-1.75-7.22,5.62-4.85-7.4-.57-2.88-6.85Zm0,0" style="fill: #133e6d;"/>
    <path d="M120.89,140.27c.81,4.63,2.02,9.18,3.63,13.6l75.21,33.52,75.21-33.52c1.61-4.42,2.82-8.97,3.63-13.61l-78.84,35.13-78.84-35.13Zm7.52,22.58c3.18,6.25,7.17,12.06,11.86,17.28l59.46,26.5,59.46-26.5c4.69-5.22,8.68-11.02,11.86-17.28l-71.32,31.78-71.32-31.78Zm0,0" style="fill: #b41820;"/>
    <path d="M199.73,46.47c-21.23,0-41.6,8.29-56.61,23.04-15.01,14.76-23.45,34.77-23.45,55.63,.02,2.58,.16,5.17,.44,7.74l67.05,29.07-3.51-23.22-12.46-4.56-1-7.4h59.11l-1,7.4-12.46,4.56-3.52,23.22,67.05-29.07c.27-2.57,.42-5.15,.44-7.74,0-20.87-8.44-40.88-23.45-55.63-15.01-14.75-35.38-23.04-56.61-23.04h0Zm8.31,10.77c-7.29,21.62,26.99,22.81,15.59,45.21,3.41-.34,4.04-1.5,6.44-4.08,2.84,11.1-1.11,18.36-8,21.4h-44.95c-18.33-19.24,1.6-21.91-2.33-33.81,8.75-.94,16.43,4.23,14.88,16.79,11.95-8.22-13.24-31.75,18.37-45.52h0Zm0,0" style="fill: #133e6d;"/>
    <path d="M199.72,33.38c-51.41,0-93.17,41.76-93.17,93.17s41.76,93.17,93.17,93.17,93.17-41.76,93.17-93.17-41.76-93.17-93.17-93.17h0Zm0,7.7c47.25,0,85.47,38.22,85.47,85.47s-38.22,85.47-85.47,85.47-85.46-38.22-85.46-85.47,38.21-85.47,85.46-85.47h0Zm0,0" style="fill: #b41820;"/>
  </g>
  <g>
    <path d="M11.11,305.35l-4.1,4.27v7.71H0v-30.51H7.02v14.25l13.51-14.25h7.84l-12.64,13.6,13.38,16.91h-8.24l-9.76-11.98Z" style="fill: #133e6d;"/>
    <path d="M32.25,286.83h7.06v30.51h-7.06v-30.51Z" style="fill: #133e6d;"/>
    <path d="M74.52,286.83v30.51h-5.8l-15.21-18.52v18.52h-6.97v-30.51h5.84l15.17,18.52v-18.52h6.97Z" style="fill: #133e6d;"/>
    <path d="M102.37,301.6h6.45v12.38c-1.66,1.25-3.57,2.21-5.75,2.88-2.18,.67-4.37,1-6.58,1-3.17,0-6.01-.68-8.54-2.03-2.53-1.35-4.51-3.22-5.95-5.62-1.44-2.4-2.16-5.11-2.16-8.13s.72-5.73,2.16-8.13c1.44-2.4,3.44-4.27,5.99-5.62,2.56-1.35,5.43-2.03,8.63-2.03,2.67,0,5.1,.45,7.28,1.35,2.18,.9,4.01,2.21,5.49,3.92l-4.53,4.18c-2.18-2.29-4.81-3.44-7.89-3.44-1.95,0-3.68,.41-5.19,1.22-1.51,.81-2.69,1.96-3.53,3.44-.84,1.48-1.26,3.18-1.26,5.1s.42,3.57,1.26,5.06c.84,1.48,2.01,2.64,3.51,3.46,1.5,.83,3.2,1.24,5.12,1.24,2.03,0,3.86-.44,5.49-1.31v-8.93Z" style="fill: #133e6d;"/>
    <path d="M131.07,314.24c-2.43-2.41-3.64-5.85-3.64-10.33v-17.08h7.06v16.82c0,5.46,2.27,8.19,6.8,8.19,2.21,0,3.89-.66,5.06-1.98,1.16-1.32,1.74-3.39,1.74-6.21v-16.82h6.97v17.08c0,4.47-1.21,7.92-3.64,10.33-2.43,2.41-5.82,3.62-10.18,3.62s-7.75-1.21-10.18-3.62Z" style="fill: #133e6d;"/>
    <path d="M190.01,286.83v30.51h-5.8l-15.21-18.52v18.52h-6.97v-30.51h5.84l15.17,18.52v-18.52h6.97Z" style="fill: #133e6d;"/>
    <path d="M197.24,286.83h7.06v30.51h-7.06v-30.51Z" style="fill: #133e6d;"/>
    <path d="M240.69,286.83l-13.2,30.51h-6.97l-13.16-30.51h7.63l9.28,21.79,9.41-21.79h7.02Z" style="fill: #133e6d;"/>
    <path d="M266.84,311.67v5.67h-23.62v-30.51h23.05v5.67h-16.04v6.62h14.16v5.49h-14.16v7.06h16.6Z" style="fill: #133e6d;"/>
    <path d="M291.9,317.34l-5.88-8.5h-6.49v8.5h-7.06v-30.51h13.2c2.7,0,5.05,.45,7.04,1.35,1.99,.9,3.52,2.18,4.6,3.84,1.07,1.66,1.61,3.62,1.61,5.88s-.54,4.22-1.63,5.86c-1.09,1.64-2.64,2.9-4.64,3.77l6.84,9.81h-7.58Zm-1.79-23.38c-1.1-.92-2.72-1.37-4.84-1.37h-5.75v10.63h5.75c2.12,0,3.73-.46,4.84-1.39,1.1-.93,1.66-2.24,1.66-3.92s-.55-3.03-1.66-3.94Z" style="fill: #133e6d;"/>
    <path d="M307.52,316.88c-2.25-.65-4.06-1.5-5.43-2.55l2.4-5.32c1.31,.96,2.86,1.73,4.66,2.31,1.8,.58,3.6,.87,5.4,.87,2,0,3.49-.3,4.45-.89,.96-.6,1.44-1.39,1.44-2.38,0-.73-.28-1.33-.85-1.81-.57-.48-1.29-.86-2.18-1.15-.89-.29-2.09-.61-3.6-.96-2.32-.55-4.23-1.1-5.71-1.66-1.48-.55-2.75-1.44-3.81-2.66-1.06-1.22-1.59-2.85-1.59-4.88,0-1.77,.48-3.38,1.44-4.82,.96-1.44,2.4-2.58,4.34-3.42,1.93-.84,4.29-1.26,7.08-1.26,1.95,0,3.85,.23,5.71,.7,1.86,.47,3.49,1.13,4.88,2l-2.18,5.36c-2.82-1.6-5.64-2.4-8.45-2.4-1.98,0-3.44,.32-4.38,.96-.94,.64-1.42,1.48-1.42,2.53s.54,1.82,1.63,2.33c1.09,.51,2.75,1.01,4.99,1.5,2.32,.55,4.23,1.1,5.71,1.66,1.48,.55,2.75,1.42,3.81,2.61,1.06,1.19,1.59,2.8,1.59,4.84,0,1.74-.49,3.33-1.46,4.77-.97,1.44-2.43,2.58-4.38,3.42-1.95,.84-4.31,1.26-7.1,1.26-2.41,0-4.74-.33-6.99-.98Z" style="fill: #133e6d;"/>
    <path d="M332.29,286.83h7.06v30.51h-7.06v-30.51Z" style="fill: #133e6d;"/>
    <path d="M352.91,292.58h-9.76v-5.75h26.58v5.75h-9.76v24.75h-7.06v-24.75Z" style="fill: #133e6d;"/>
    <path d="M387.6,306.53v10.81h-7.06v-10.89l-11.81-19.61h7.5l8.15,13.55,8.15-13.55h6.93l-11.85,19.7Z" style="fill: #133e6d;"/>
  </g>
</svg>