<?xml version="1.0" encoding="utf-8"?>
<!-- Generator: Adobe Illustrator 27.0.0, SVG Export Plug-In . SVG Version: 6.00 Build 0)  -->
<svg version="1.1" id="Layer_1" xmlns="http://www.w3.org/2000/svg" xmlns:xlink="http://www.w3.org/1999/xlink" x="0px" y="0px"
	 width="180px" height="180px" viewBox="0 0 180 180" style="enable-background:new 0 0 180 180;" xml:space="preserve">
<style type="text/css">
	.st0{fill:#1F2329;}
	.st1{fill:#1A1A1A;}
	.st2{fill:#121314;}
	.st3{fill:url(#SVGID_1_);}
	.st4{fill:url(#SVGID_00000019658669754766959160000000641101991886124946_);}
	.st5{fill:url(#SVGID_00000069385075145045116910000014119034607611107488_);}
	.st6{fill:#F4CB00;}
	.st7{fill:url(#SVGID_00000089544387139882660540000005068928396183014789_);}
	.st8{fill:url(#SVGID_00000067919996593255248280000014891485693014745741_);}
	.st9{filter:url(#Adobe_OpacityMaskFilter);}
	.st10{filter:url(#Adobe_OpacityMaskFilter_00000115472590676693410100000009877531295688733595_);}
	.st11{fill:#FDFB73;}
	.st12{filter:url(#Adobe_OpacityMaskFilter_00000124155542908071720740000009828430783848468364_);}
	.st13{filter:url(#Adobe_OpacityMaskFilter_00000001650209075351564900000003484010263760381117_);}
	.st14{fill:#F9E550;}
	.st15{filter:url(#Adobe_OpacityMaskFilter_00000047026980470181715120000014152917063128067215_);}
	.st16{filter:url(#Adobe_OpacityMaskFilter_00000037677871050167578350000009806096433325648781_);}
	.st17{filter:url(#Adobe_OpacityMaskFilter_00000079479362567478465770000010745240712402922673_);}
	.st18{filter:url(#Adobe_OpacityMaskFilter_00000093144197043431525240000001312118148700683711_);}
	.st19{opacity:0.53;}
	.st20{fill:url(#SVGID_00000029734271032066041340000014843143420454006943_);}
	.st21{fill:url(#SVGID_00000137097409500633262880000000673064845166054836_);}
	.st22{fill:url(#SVGID_00000114773001360074385290000017724071369908218538_);}
	.st23{fill:url(#SVGID_00000016795548467050234570000005598461757156859014_);}
	.st24{fill:url(#SVGID_00000159466646062405480600000015986481199075989182_);}
	.st25{fill:url(#SVGID_00000086680552539644583130000000454426488864520862_);}
	.st26{fill:url(#SVGID_00000135665979785860980380000007260836894688153518_);}
	.st27{fill:url(#SVGID_00000000930307595918600690000007730530066169951874_);}
	.st28{fill:url(#SVGID_00000117643373547387174080000007531123542863750335_);}
	.st29{fill:url(#SVGID_00000029724469365297896490000006245304978375167658_);}
	.st30{fill:url(#SVGID_00000016793175591779744440000013292387480688039054_);}
	.st31{fill:url(#SVGID_00000095337912964160614600000013968100398014960514_);}
	.st32{fill:url(#SVGID_00000116950353841068367230000011320783351618157997_);}
	.st33{fill:url(#SVGID_00000030450659952462698980000012166410060049417368_);}
	.st34{fill:url(#SVGID_00000032617903024924558600000007315064614826393497_);}
	.st35{fill:url(#SVGID_00000047773451967487436240000015924149305398988467_);}
	.st36{fill:url(#SVGID_00000029763605856376018200000007583178748494606744_);}
	.st37{fill:url(#SVGID_00000083768286511077216760000018127340142688921531_);}
	.st38{fill:url(#SVGID_00000161632776763210233480000008340313796393208736_);}
	.st39{fill:url(#SVGID_00000011005953420996868060000017102143433766974860_);}
	.st40{fill:url(#SVGID_00000124881835730309056550000002804905180578324360_);}
	.st41{fill:url(#SVGID_00000017500520283866445760000006679716184244809389_);}
	.st42{fill:url(#SVGID_00000085956373215627035400000002337535164687847089_);}
	.st43{fill:url(#SVGID_00000016789104889554974620000013988535908572820924_);}
	.st44{fill:url(#SVGID_00000030471449290552308960000016601674494840411822_);}
	.st45{fill:url(#SVGID_00000043414894634129033000000006419311554192579260_);}
	.st46{clip-path:url(#SVGID_00000096746219859626241310000017284906423943308672_);}
	.st47{fill:url(#SVGID_00000107556867627356803710000003605045960498901412_);}
	.st48{fill:url(#SVGID_00000130606267725184496120000015082571120413111712_);}
	.st49{opacity:0.6;fill:#4D4D4D;}
	.st50{fill:#FF5FAF;}
	.st51{fill:#5120BC;}
	.st52{fill:#EBE7FF;}
	.st53{fill:url(#SVGID_00000133503451301606547550000011805890426799126440_);}
	.st54{fill:url(#SVGID_00000161603416715465070440000015887769697362513047_);}
	.st55{fill:url(#SVGID_00000111183748061616088490000015639375259882736521_);}
</style>
<g>
	<path class="st50" d="M132.97,67.94v18.21c0,23.69-19.27,42.97-42.97,42.97c-23.69,0-42.97-19.27-42.97-42.97V67.94H14.86v18.21
		c0,41.43,33.71,75.14,75.14,75.14c41.43,0,75.14-33.71,75.14-75.14V67.94H132.97z"/>
	<g>
		<path class="st51" d="M122.5,89.63c0-0.02-0.01-0.03-0.01-0.05c0,0.07,0.01,0.14,0.01,0.21C122.5,89.73,122.51,89.69,122.5,89.63z
			"/>
		<path class="st51" d="M57.5,89.63c-0.01,0.06,0,0.1,0,0.16c0-0.07,0.01-0.14,0.01-0.21C57.5,89.59,57.5,89.61,57.5,89.63z"/>
		<path class="st51" d="M64.25,57.11c0.9,0.8,2.27,0.76,3.11-0.08c0.87-0.87,0.91-2.24,0.03-3.16c-0.36-0.38-0.48-0.76-0.47-1.26
			c0.01-2.97,0.01-5.95,0.01-8.92c0-2.89,0-5.79,0-8.68c0-1.26,0-1.26-1.17-1.6c-1.21-0.35-1.23-0.34-1.23,0.91
			c0,6.05,0,12.1,0,18.15c0,0.57-0.09,1.04-0.5,1.5C63.19,54.92,63.32,56.28,64.25,57.11z"/>
		<path class="st51" d="M59.37,93.85c2.01,1.39,4.29,2.11,6.62,2.7c4.86,1.23,9.82,1.78,14.81,2.08c0.98,0.06,1.97,0.16,2.95,0.25
			c4.17,0,8.34,0,12.5,0c1.84-0.14,3.68-0.24,5.52-0.42c5.44-0.52,10.87-1.14,16.03-3.12c1-0.38,1.94-0.88,2.83-1.49
			c1.44-1,2.07-2.29,1.88-4.07c0-0.07-0.01-0.14-0.01-0.21c-0.4-2.96-1.44-5.68-3.03-8.17c-4.74-7.42-11.44-12.28-19.75-14.99
			c-0.22-0.07-0.46-0.11-0.67-0.2c-0.18-0.07-0.47-0.04-0.52-0.28c-0.05-0.25,0.22-0.32,0.37-0.45c0.45-0.36,0.88-0.75,1.29-1.14
			c-3.21-0.9-6.63-1.4-10.19-1.4c-3.56,0-6.97,0.5-10.18,1.4c0.38,0.35,0.75,0.71,1.16,1.05c0.19,0.16,0.55,0.24,0.49,0.54
			c-0.06,0.28-0.42,0.25-0.66,0.33c-8.55,2.65-15.42,7.56-20.27,15.15c-1.59,2.49-2.62,5.2-3.03,8.17c0,0.07-0.01,0.14-0.01,0.21
			C57.31,91.56,57.93,92.86,59.37,93.85z M81.36,88.87c2.31-5.53,4.58-11.08,6.89-16.61c0.3-0.72,0.31-1.23-0.28-1.8
			c-0.7-0.69-1.3-1.47-1.95-2.22c2.66,0.67,5.24,0.67,7.83-0.13c0.02,0.06,0.05,0.12,0.07,0.18c-0.66,0.76-1.29,1.55-1.98,2.27
			c-0.47,0.49-0.5,0.92-0.25,1.53c2.33,5.58,4.62,11.18,6.95,16.76c0.27,0.65,0.22,1.05-0.3,1.56c-2.59,2.54-5.14,5.1-7.68,7.69
			c-0.49,0.5-0.79,0.54-1.31,0.01c-2.53-2.59-5.09-5.15-7.67-7.69C81.17,89.93,81.08,89.53,81.36,88.87z"/>
		<path class="st51" d="M122.51,89.79c0-0.07-0.01-0.14-0.01-0.21c-0.4-2.96-1.44-5.68-3.03-8.17
			c-4.74-7.42-11.44-12.28-19.75-14.99c-0.22-0.07-0.46-0.11-0.67-0.2c-0.18-0.07-0.47-0.04-0.52-0.28
			c-0.05-0.25,0.22-0.32,0.37-0.45c0.45-0.36,0.88-0.75,1.29-1.14c3.86-3.56,6.27-8,7.38-13.22c0.07-0.33,0.11-0.67,0.15-1
			c0.1-0.8,0.18-1.58,0.85-2.19c0.48-0.44,0.55-1.09,0.55-1.74c-0.01-3.68,0.02-7.36-0.02-11.03c-0.01-0.76,0.25-1.11,0.95-1.35
			c3.39-1.18,6.77-2.4,10.15-3.62c0.25-0.09,0.67-0.07,0.66-0.42c-0.01-0.25-0.4-0.27-0.64-0.35c-9.58-3.43-19.16-6.86-28.74-10.29
			c-0.34-0.12-0.67-0.28-1-0.42c-0.31,0-0.63,0-0.94,0c-2.47,1.04-5.03,1.86-7.55,2.76c-7.4,2.66-14.8,5.3-22.2,7.95
			c-0.24,0.08-0.63,0.1-0.64,0.35c-0.01,0.35,0.41,0.33,0.66,0.42c3.4,1.23,6.8,2.46,10.22,3.65c0.65,0.23,0.88,0.56,0.87,1.24
			c-0.03,3.7-0.01,7.41-0.02,11.11c0,0.65,0.08,1.3,0.55,1.74c0.61,0.57,0.73,1.28,0.84,2.03c0.86,5.73,3.4,10.51,7.55,14.38
			c0.38,0.35,0.75,0.71,1.16,1.05c0.19,0.16,0.55,0.24,0.49,0.54c-0.06,0.28-0.42,0.25-0.66,0.33c-8.55,2.65-15.42,7.56-20.27,15.15
			c-1.59,2.49-2.62,5.2-3.03,8.17c0,0.07-0.01,0.14-0.01,0.21c-0.01,0.28-0.05,0.55-0.05,0.83c0,15.28,14.58,27.67,32.55,27.67
			c17.98,0,32.55-12.39,32.55-27.67C122.55,90.34,122.52,90.07,122.51,89.79z M98.34,90.42c-2.59,2.54-5.14,5.1-7.68,7.69
			c-0.49,0.5-0.79,0.54-1.31,0.01c-2.53-2.59-5.09-5.15-7.67-7.69c-0.51-0.5-0.6-0.9-0.32-1.56c2.31-5.53,4.58-11.08,6.89-16.61
			c0.3-0.72,0.31-1.23-0.28-1.8c-0.7-0.69-1.3-1.47-1.95-2.22c2.66,0.67,5.24,0.67,7.83-0.13c0.02,0.06,0.05,0.12,0.07,0.18
			c-0.66,0.76-1.29,1.55-1.98,2.27c-0.47,0.49-0.5,0.92-0.25,1.53c2.33,5.58,4.62,11.18,6.95,16.76
			C98.91,89.51,98.85,89.91,98.34,90.42z"/>
	</g>
</g>
</svg>
