<?xml version="1.0" encoding="utf-8"?>
<!-- Generator: Adobe Illustrator 27.0.0, SVG Export Plug-In . SVG Version: 6.00 Build 0)  -->
<svg version="1.1" id="Layer_1" xmlns="http://www.w3.org/2000/svg" xmlns:xlink="http://www.w3.org/1999/xlink" x="0px" y="0px"
	 width="400px" height="76.47px" viewBox="0 0 400 76.47" style="enable-background:new 0 0 400 76.47;" xml:space="preserve">
<style type="text/css">
	.st0{fill:#1F2329;}
	.st1{fill:#1A1A1A;}
	.st2{fill:#121314;}
	.st3{fill:url(#SVGID_1_);}
	.st4{fill:url(#SVGID_00000157280661418132446610000011985667156745930384_);}
	.st5{fill:url(#SVGID_00000158015013794956243280000009978438547900522416_);}
	.st6{fill:#F4CB00;}
	.st7{fill:url(#SVGID_00000053540601588960052630000004014959581131370928_);}
	.st8{fill:url(#SVGID_00000099626129590741908590000016927535770329940389_);}
	.st9{filter:url(#Adobe_OpacityMaskFilter);}
	.st10{filter:url(#Adobe_OpacityMaskFilter_00000117664299646463668570000002865517714238919345_);}
	.st11{fill:#FDFB73;}
	.st12{filter:url(#Adobe_OpacityMaskFilter_00000083790863030565293800000006596555456214390196_);}
	.st13{filter:url(#Adobe_OpacityMaskFilter_00000144296974041052958210000011565934775872026000_);}
	.st14{fill:#F9E550;}
	.st15{filter:url(#Adobe_OpacityMaskFilter_00000034796298810334670930000003208022747619960974_);}
	.st16{filter:url(#Adobe_OpacityMaskFilter_00000158714749627990663540000013276848297859169683_);}
	.st17{filter:url(#Adobe_OpacityMaskFilter_00000019636734844837153410000009561799889863126426_);}
	.st18{filter:url(#Adobe_OpacityMaskFilter_00000179625973840135257170000003893519495073643423_);}
	.st19{opacity:0.53;}
	.st20{fill:url(#SVGID_00000002379553760668051410000016835716419797240462_);}
	.st21{fill:url(#SVGID_00000158717890861141620380000005302797354527670404_);}
	.st22{fill:url(#SVGID_00000152946093021185434860000005828566258332361396_);}
	.st23{fill:url(#SVGID_00000112600167734532582650000014656873544143299488_);}
	.st24{fill:url(#SVGID_00000157308323954662028380000005531621110688081320_);}
	.st25{fill:url(#SVGID_00000016772569726311411500000015051364357972646584_);}
	.st26{fill:url(#SVGID_00000086665861178416758810000000809870617982392496_);}
	.st27{fill:url(#SVGID_00000130605059381922921280000007380440732913305476_);}
	.st28{fill:url(#SVGID_00000060017022102263170620000008498004960871902874_);}
	.st29{fill:url(#SVGID_00000065772745475428732710000005808436358983625645_);}
	.st30{fill:url(#SVGID_00000044868476132466335440000008118520952975964838_);}
	.st31{fill:url(#SVGID_00000144297449969859580590000015359827933396393631_);}
	.st32{fill:url(#SVGID_00000096741223961781913120000012428939286105579951_);}
	.st33{fill:url(#SVGID_00000142139860942294550140000004322544481319818670_);}
	.st34{fill:url(#SVGID_00000025403036397928162610000014489006383782216888_);}
	.st35{fill:url(#SVGID_00000085956236214028747240000005582349663762691245_);}
	.st36{fill:url(#SVGID_00000081646599721532151590000015357346790080951730_);}
	.st37{fill:url(#SVGID_00000070817478466974149200000007251936068155657344_);}
	.st38{fill:url(#SVGID_00000083768797151274407830000008847721226378670782_);}
	.st39{fill:url(#SVGID_00000034066163529983910410000015725114804473862334_);}
	.st40{fill:url(#SVGID_00000127019800457181247640000001325464774552755631_);}
	.st41{fill:url(#SVGID_00000136383696673857081410000016529285052079411603_);}
	.st42{fill:url(#SVGID_00000099659103859953493030000014320777524568120708_);}
	.st43{fill:url(#SVGID_00000109021608474932364380000002079411192129527968_);}
	.st44{fill:url(#SVGID_00000083768016284892830080000003593818951455582343_);}
	.st45{fill:url(#SVGID_00000170246534512390042750000008899491062097410978_);}
	.st46{clip-path:url(#SVGID_00000048479133312264625690000013753228367307674794_);}
	.st47{fill:url(#SVGID_00000122690023000110725580000010865257006816560036_);}
	.st48{fill:url(#SVGID_00000142891985408849574030000006885617579110990212_);}
	.st49{opacity:0.6;fill:#4D4D4D;}
	.st50{fill:#FF5FAF;}
	.st51{fill:#5120BC;}
	.st52{fill:#EBE7FF;}
	.st53{fill:url(#SVGID_00000181068452041039057550000003677803438551517328_);}
	.st54{fill:url(#SVGID_00000081643068751808328700000009775468762585504655_);}
	.st55{fill:url(#SVGID_00000064311459193730397480000009447300936968585137_);}
</style>
<g>
	<g>
		<g>
			<path class="st51" d="M97.45,65.68V26.2h11.52v30.65h17.78v8.83H97.45z"/>
			<path class="st51" d="M131.83,65.68V45.02h-4.23l0.98-8.4h14.77v29.05H131.83z M130.91,32.76v-8.34h12.44v8.34H130.91z"/>
			<path class="st51" d="M150.1,65.68V36.62h10.79l0.31,2.21c1.1-0.74,2.56-1.39,4.38-1.96c1.82-0.57,3.77-0.86,5.85-0.86
				c3.64,0,6.29,0.9,7.97,2.7c1.67,1.8,2.51,4.58,2.51,8.34v18.63h-11.52V48.21c0-1.31-0.29-2.25-0.86-2.82
				c-0.57-0.57-1.57-0.86-3-0.86c-0.86,0-1.75,0.2-2.67,0.61c-0.92,0.41-1.67,0.9-2.24,1.47v19.06H150.1z"/>
			<path class="st51" d="M188.35,65.68V24.36h11.52v20.41l8.09-8.15h13.06l-11.59,12.26l12.26,16.8h-12.26l-7.17-10.79l-2.39,2.39
				v8.4H188.35z"/>
			<path class="st51" d="M228,65.68V26.2h6.87l12.5,25.56l12.44-25.56h6.86v39.47h-6.62V37.05L249.4,58.87h-4.05l-10.73-21.82v28.63
				H228z"/>
			<path class="st51" d="M280.05,76.47c-2.21,0-4.09-0.29-5.64-0.86v-4.96c0.69,0.24,1.34,0.41,1.93,0.49
				c0.59,0.08,1.2,0.12,1.81,0.12c1.27,0,2.29-0.2,3.06-0.61c0.78-0.41,1.46-1.05,2.05-1.93c0.59-0.88,1.24-2.01,1.93-3.4
				l-12.93-28.69h6.93l9.32,21.58l9.44-21.58h6.87l-11.83,27.4c-1.02,2.45-2.12,4.61-3.28,6.47c-1.16,1.86-2.51,3.32-4.05,4.38
				C284.12,75.93,282.25,76.47,280.05,76.47z"/>
			<path class="st50" d="M327.92,66.29c-5.44,0-9.65-1.31-12.66-3.92c-3-2.62-4.51-6.39-4.51-11.34V26.2h6.68v24.58
				c0,3.31,0.91,5.78,2.73,7.42c1.82,1.64,4.4,2.45,7.75,2.45c3.31,0,5.87-0.82,7.69-2.45c1.82-1.63,2.73-4.11,2.73-7.42V26.2h6.62
				v24.82c0,4.95-1.49,8.73-4.47,11.34C337.5,64.98,333.31,66.29,327.92,66.29z"/>
			<path class="st50" d="M353.6,65.68V36.62h6.13l0.31,3.06c1.31-1.02,2.87-1.89,4.69-2.61c1.82-0.71,3.83-1.07,6.04-1.07
				c3.76,0,6.5,0.88,8.21,2.63c1.72,1.76,2.57,4.5,2.57,8.21v18.82h-6.62V47.17c0-2.25-0.46-3.82-1.38-4.72
				c-0.92-0.9-2.65-1.35-5.18-1.35c-1.51,0-2.99,0.31-4.44,0.92c-1.45,0.61-2.67,1.41-3.65,2.39v21.27H353.6z"/>
			<path class="st50" d="M393.26,65.68V41.71h-4.41l0.61-5.09h10.48v29.05H393.26z M392.71,30.56v-5.52H400v5.52H392.71z"/>
		</g>
	</g>
	<g>
		<path class="st50" d="M62.85,26.2v9.69c0,12.61-10.26,22.86-22.86,22.86c-12.61,0-22.86-10.26-22.86-22.86V26.2H0v9.69
			c0,22.05,17.94,39.99,39.99,39.99c22.05,0,39.99-17.94,39.99-39.99V26.2H62.85z"/>
		<g>
			<path class="st51" d="M57.29,37.74c0-0.01,0-0.02-0.01-0.03c0,0.04,0.01,0.07,0.01,0.11C57.28,37.8,57.29,37.77,57.29,37.74z"/>
			<path class="st51" d="M22.69,37.74c0,0.03,0,0.05,0,0.08c0-0.04,0.01-0.08,0.01-0.11C22.7,37.73,22.69,37.73,22.69,37.74z"/>
			<path class="st51" d="M26.29,20.44c0.48,0.43,1.21,0.41,1.66-0.04c0.46-0.46,0.48-1.19,0.02-1.68c-0.19-0.2-0.25-0.4-0.25-0.67
				c0.01-1.58,0-3.16,0-4.75c0-1.54,0-3.08,0-4.62c0-0.67,0-0.67-0.62-0.85c-0.64-0.19-0.66-0.18-0.66,0.48c0,3.22,0,6.44,0,9.66
				c0,0.3-0.05,0.55-0.26,0.8C25.72,19.27,25.79,20,26.29,20.44z"/>
			<path class="st51" d="M23.69,39.99c1.07,0.74,2.28,1.13,3.52,1.44c2.59,0.65,5.22,0.95,7.88,1.11c0.52,0.03,1.05,0.09,1.57,0.13
				c2.22,0,4.44,0,6.65,0c0.98-0.07,1.96-0.13,2.94-0.22c2.9-0.28,5.79-0.6,8.53-1.66c0.53-0.2,1.03-0.47,1.5-0.79
				c0.77-0.53,1.1-1.22,1-2.16c0-0.04-0.01-0.07-0.01-0.11c-0.21-1.58-0.76-3.02-1.61-4.35c-2.52-3.95-6.09-6.54-10.51-7.98
				c-0.12-0.04-0.24-0.06-0.36-0.11c-0.1-0.04-0.25-0.02-0.28-0.15c-0.03-0.13,0.12-0.17,0.2-0.24c0.24-0.19,0.47-0.4,0.69-0.6
				c-1.71-0.48-3.53-0.75-5.42-0.75c-1.89,0-3.71,0.27-5.42,0.74c0.2,0.19,0.4,0.38,0.62,0.56c0.1,0.08,0.29,0.13,0.26,0.29
				c-0.03,0.15-0.22,0.13-0.35,0.17c-4.55,1.41-8.21,4.02-10.79,8.06c-0.85,1.33-1.4,2.77-1.61,4.35c0,0.04-0.01,0.08-0.01,0.11
				C22.59,38.77,22.92,39.46,23.69,39.99z M35.39,37.34c1.23-2.94,2.44-5.9,3.67-8.84c0.16-0.38,0.16-0.65-0.15-0.96
				c-0.37-0.36-0.69-0.78-1.04-1.18c1.41,0.35,2.79,0.36,4.17-0.07c0.01,0.03,0.02,0.06,0.04,0.1c-0.35,0.4-0.68,0.82-1.06,1.21
				c-0.25,0.26-0.27,0.49-0.13,0.82c1.24,2.97,2.46,5.95,3.7,8.92c0.15,0.35,0.11,0.56-0.16,0.83c-1.38,1.35-2.74,2.72-4.08,4.09
				c-0.26,0.27-0.42,0.29-0.7,0.01c-1.35-1.38-2.71-2.74-4.08-4.09C35.29,37.9,35.24,37.69,35.39,37.34z"/>
			<path class="st51" d="M57.29,37.83c0-0.04-0.01-0.07-0.01-0.11c-0.21-1.58-0.76-3.02-1.61-4.35c-2.52-3.95-6.09-6.54-10.51-7.98
				c-0.12-0.04-0.24-0.06-0.36-0.11c-0.1-0.04-0.25-0.02-0.28-0.15c-0.03-0.13,0.12-0.17,0.2-0.24c0.24-0.19,0.47-0.4,0.69-0.6
				c2.05-1.89,3.34-4.26,3.93-7.04c0.04-0.18,0.06-0.36,0.08-0.53c0.05-0.43,0.1-0.84,0.45-1.16c0.26-0.23,0.29-0.58,0.29-0.93
				c-0.01-1.96,0.01-3.91-0.01-5.87c0-0.4,0.13-0.59,0.51-0.72c1.81-0.63,3.6-1.28,5.4-1.93c0.13-0.05,0.36-0.04,0.35-0.22
				c-0.01-0.14-0.21-0.14-0.34-0.19c-5.1-1.83-10.2-3.65-15.3-5.48C40.59,0.16,40.42,0.08,40.24,0c-0.17,0-0.33,0-0.5,0
				c-1.32,0.55-2.68,0.99-4.02,1.47c-3.94,1.42-7.88,2.82-11.81,4.23c-0.13,0.05-0.34,0.05-0.34,0.19
				c-0.01,0.19,0.22,0.18,0.35,0.22c1.81,0.65,3.62,1.31,5.44,1.94c0.35,0.12,0.47,0.3,0.47,0.66c-0.02,1.97,0,3.94-0.01,5.91
				c0,0.35,0.04,0.69,0.29,0.93c0.33,0.3,0.39,0.68,0.45,1.08c0.46,3.05,1.81,5.59,4.02,7.65c0.2,0.19,0.4,0.38,0.62,0.56
				c0.1,0.08,0.29,0.13,0.26,0.29c-0.03,0.15-0.22,0.13-0.35,0.17c-4.55,1.41-8.21,4.02-10.79,8.06c-0.85,1.33-1.4,2.77-1.61,4.35
				c0,0.04-0.01,0.08-0.01,0.11c-0.01,0.15-0.03,0.29-0.03,0.44C22.66,46.4,30.42,53,39.99,53c9.57,0,17.32-6.59,17.32-14.72
				C57.31,38.12,57.29,37.98,57.29,37.83z M44.42,38.16c-1.38,1.35-2.74,2.72-4.08,4.09c-0.26,0.27-0.42,0.29-0.7,0.01
				c-1.35-1.38-2.71-2.74-4.08-4.09c-0.27-0.27-0.32-0.48-0.17-0.83c1.23-2.94,2.44-5.9,3.67-8.84c0.16-0.38,0.16-0.65-0.15-0.96
				c-0.37-0.36-0.69-0.78-1.04-1.18c1.41,0.35,2.79,0.36,4.17-0.07c0.01,0.03,0.02,0.06,0.04,0.1c-0.35,0.4-0.68,0.82-1.06,1.21
				c-0.25,0.26-0.27,0.49-0.13,0.82c1.24,2.97,2.46,5.95,3.7,8.92C44.73,37.68,44.7,37.89,44.42,38.16z"/>
		</g>
	</g>
</g>
</svg>
