<?xml version="1.0" encoding="utf-8"?>
<!-- Generator: Adobe Illustrator 27.0.0, SVG Export Plug-In . SVG Version: 6.00 Build 0)  -->
<svg version="1.1" id="Layer_1" xmlns="http://www.w3.org/2000/svg" xmlns:xlink="http://www.w3.org/1999/xlink" x="0px" y="0px"
	 width="302.5px" height="52.1px" viewBox="0 0 302.5 52.1" style="enable-background:new 0 0 302.5 52.1;" xml:space="preserve">
<style type="text/css">
	.st0{fill:#5120BC;}
	.st1{fill:#FF5FAF;}
</style>
<g>
	<g>
		<g>
			<path class="st0" d="M0,41.3V1.8h11.5v30.6h17.8v8.8H0z"/>
			<path class="st0" d="M34.4,41.3V20.7h-4.2l1-8.4h14.8v29L34.4,41.3L34.4,41.3z M33.5,8.4V0.1h12.4v8.3H33.5z"/>
			<path class="st0" d="M52.7,41.3V12.3h10.8l0.3,2.2c1.1-0.7,2.6-1.4,4.4-2s3.8-0.9,5.9-0.9c3.6,0,6.3,0.9,8,2.7
				c1.7,1.8,2.5,4.6,2.5,8.3v18.6H72.9V23.8c0-1.3-0.3-2.2-0.9-2.8s-1.6-0.9-3-0.9c-0.9,0-1.8,0.2-2.7,0.6s-1.7,0.9-2.2,1.5v19.1
				L52.7,41.3L52.7,41.3z"/>
			<path class="st0" d="M90.9,41.3V0h11.5v20.4l8.1-8.1h13.1L112,24.5l12.3,16.8H112l-7.2-10.8l-2.4,2.4v8.4
				C102.4,41.3,90.9,41.3,90.9,41.3z"/>
			<path class="st0" d="M130.6,41.3V1.8h6.9l12.5,25.6l12.4-25.6h6.9v39.5h-6.6V12.7l-10.6,21.8h-4.1l-10.7-21.8v28.6H130.6z"/>
			<path class="st0" d="M182.6,52.1c-2.2,0-4.1-0.3-5.6-0.9v-5c0.7,0.2,1.3,0.4,1.9,0.5c0.6,0.1,1.2,0.1,1.8,0.1
				c1.3,0,2.3-0.2,3.1-0.6c0.8-0.4,1.5-1.1,2-1.9s1.2-2,1.9-3.4l-12.9-28.7h6.9l9.3,21.6l9.4-21.6h6.9l-11.8,27.4
				c-1,2.4-2.1,4.6-3.3,6.5s-2.5,3.3-4,4.4C186.7,51.6,184.8,52.1,182.6,52.1z"/>
			<path class="st1" d="M230.5,41.9c-5.4,0-9.6-1.3-12.7-3.9c-3-2.6-4.5-6.4-4.5-11.3V1.8h6.7v24.6c0,3.3,0.9,5.8,2.7,7.4
				s4.4,2.5,7.8,2.5c3.3,0,5.9-0.8,7.7-2.5s2.7-4.1,2.7-7.4V1.8h6.6v24.8c0,5-1.5,8.7-4.5,11.3C240.1,40.6,235.9,41.9,230.5,41.9z"
				/>
			<path class="st1" d="M256.2,41.3V12.3h6.1l0.3,3.1c1.3-1,2.9-1.9,4.7-2.6c1.8-0.7,3.8-1.1,6-1.1c3.8,0,6.5,0.9,8.2,2.6
				c1.7,1.8,2.6,4.5,2.6,8.2v18.8h-6.6V22.8c0-2.2-0.5-3.8-1.4-4.7c-0.9-0.9-2.7-1.3-5.2-1.3c-1.5,0-3,0.3-4.4,0.9
				c-1.5,0.6-2.7,1.4-3.7,2.4v21.3C262.8,41.3,256.2,41.3,256.2,41.3z"/>
			<path class="st1" d="M295.8,41.3v-24h-4.4l0.6-5.1h10.5v29L295.8,41.3L295.8,41.3z M295.3,6.2V0.7h7.3v5.5H295.3z"/>
		</g>
	</g>
</g>
</svg>
